<svg xmlns="http://www.w3.org/2000/svg" xmlns:xlink="http://www.w3.org/1999/xlink" width="367" zoomAndPan="magnify" viewBox="0 0 275.25 36.000001" height="48" preserveAspectRatio="xMidYMid meet" version="1.0"><defs><g/><clipPath id="d3d1d27887"><path d="M 3.355469 0.835938 L 36 0.835938 L 36 33.675781 L 3.355469 33.675781 Z M 3.355469 0.835938 " clip-rule="nonzero"/></clipPath></defs><g clip-path="url(#d3d1d27887)"><path fill="#ffffff" d="M 4.476562 18.476562 C 4.324219 18.476562 4.179688 18.445312 4.042969 18.386719 C 3.902344 18.328125 3.78125 18.246094 3.675781 18.140625 C 3.566406 18.03125 3.484375 17.910156 3.429688 17.769531 C 3.371094 17.628906 3.34375 17.484375 3.34375 17.335938 C 3.34375 17.183594 3.371094 17.039062 3.429688 16.898438 C 3.484375 16.761719 3.566406 16.636719 3.675781 16.53125 C 3.78125 16.421875 3.902344 16.339844 4.042969 16.28125 C 4.179688 16.222656 4.324219 16.195312 4.476562 16.191406 L 15.839844 16.191406 C 15.988281 16.191406 16.136719 16.222656 16.273438 16.28125 C 16.414062 16.335938 16.539062 16.417969 16.644531 16.527344 C 16.753906 16.632812 16.835938 16.757812 16.894531 16.898438 C 16.953125 17.039062 16.980469 17.183594 16.980469 17.335938 C 16.980469 17.484375 16.953125 17.632812 16.894531 17.773438 C 16.835938 17.910156 16.753906 18.035156 16.644531 18.144531 C 16.539062 18.25 16.414062 18.332031 16.273438 18.390625 C 16.136719 18.449219 15.988281 18.476562 15.839844 18.476562 Z M 30.609375 22.964844 C 30.609375 22.8125 30.640625 22.667969 30.695312 22.527344 C 30.753906 22.386719 30.835938 22.265625 30.941406 22.15625 C 31.050781 22.050781 31.171875 21.96875 31.3125 21.910156 C 31.453125 21.851562 31.597656 21.820312 31.75 21.820312 C 31.902344 21.820312 32.046875 21.851562 32.1875 21.910156 C 32.324219 21.96875 32.449219 22.050781 32.554688 22.15625 C 32.664062 22.265625 32.746094 22.386719 32.800781 22.527344 C 32.859375 22.667969 32.886719 22.8125 32.886719 22.964844 C 32.867188 25.515625 32.183594 27.875 30.832031 30.042969 C 29.417969 32.292969 27.457031 33.765625 25.695312 33.765625 C 25.039062 33.761719 24.410156 33.628906 23.8125 33.367188 C 23.210938 33.105469 22.6875 32.734375 22.238281 32.257812 C 21.207031 31.140625 20.472656 29.859375 20.03125 28.40625 C 19.980469 28.265625 19.960938 28.117188 19.96875 27.96875 C 19.976562 27.816406 20.011719 27.671875 20.078125 27.539062 C 20.140625 27.402344 20.230469 27.285156 20.34375 27.183594 C 20.457031 27.082031 20.582031 27.007812 20.726562 26.960938 C 20.867188 26.910156 21.015625 26.890625 21.164062 26.898438 C 21.316406 26.90625 21.457031 26.945312 21.59375 27.011719 C 21.730469 27.078125 21.847656 27.167969 21.945312 27.28125 C 22.046875 27.394531 22.117188 27.519531 22.167969 27.664062 C 22.5 28.777344 23.058594 29.769531 23.835938 30.632812 C 24.335938 31.175781 24.957031 31.457031 25.695312 31.46875 C 26.675781 31.46875 27.914062 30.417969 28.917969 28.816406 C 30.03125 27.027344 30.597656 25.074219 30.609375 22.964844 Z M 8.867188 11.707031 C 8.867188 11.855469 8.839844 12.003906 8.78125 12.140625 C 8.722656 12.28125 8.640625 12.40625 8.535156 12.511719 C 8.425781 12.621094 8.304688 12.703125 8.164062 12.761719 C 8.023438 12.820312 7.878906 12.847656 7.726562 12.847656 C 7.578125 12.847656 7.429688 12.820312 7.292969 12.761719 C 7.152344 12.703125 7.027344 12.621094 6.921875 12.511719 C 6.816406 12.40625 6.730469 12.28125 6.675781 12.140625 C 6.617188 12.003906 6.589844 11.855469 6.589844 11.707031 C 6.609375 9.152344 7.296875 6.792969 8.644531 4.625 C 10.058594 2.378906 12.019531 0.90625 13.78125 0.90625 C 16.070312 0.90625 17.988281 2.460938 19.238281 5.6875 C 20.265625 8.324219 20.871094 12.175781 20.871094 17.335938 C 20.871094 18.207031 20.894531 18.984375 20.917969 19.667969 C 20.953125 20.433594 20.988281 21.152344 21.046875 21.820312 C 21.0625 21.972656 21.046875 22.121094 21 22.261719 C 20.957031 22.40625 20.886719 22.539062 20.789062 22.652344 C 20.691406 22.769531 20.578125 22.863281 20.445312 22.933594 C 20.3125 23.003906 20.167969 23.046875 20.019531 23.058594 C 19.871094 23.070312 19.722656 23.050781 19.582031 23.003906 C 19.4375 22.960938 19.308594 22.886719 19.195312 22.789062 C 19.078125 22.695312 18.988281 22.578125 18.917969 22.445312 C 18.847656 22.3125 18.808594 22.171875 18.792969 22.023438 C 18.734375 21.292969 18.6875 20.539062 18.652344 19.761719 C 18.617188 18.925781 18.605469 18.125 18.605469 17.335938 C 18.605469 12.46875 18.058594 8.902344 17.121094 6.511719 C 16.257812 4.273438 15.089844 3.203125 13.78125 3.203125 C 12.800781 3.203125 11.5625 4.25 10.558594 5.851562 C 9.445312 7.644531 8.878906 9.59375 8.867188 11.707031 Z M 34.78125 16.191406 C 34.929688 16.195312 35.074219 16.222656 35.214844 16.28125 C 35.351562 16.339844 35.476562 16.421875 35.582031 16.53125 C 35.6875 16.636719 35.769531 16.761719 35.828125 16.898438 C 35.882812 17.039062 35.914062 17.183594 35.914062 17.335938 C 35.914062 17.484375 35.882812 17.628906 35.828125 17.769531 C 35.769531 17.910156 35.6875 18.03125 35.582031 18.140625 C 35.476562 18.246094 35.351562 18.328125 35.214844 18.386719 C 35.074219 18.445312 34.929688 18.476562 34.78125 18.476562 L 23.417969 18.476562 C 23.265625 18.476562 23.121094 18.445312 22.984375 18.386719 C 22.84375 18.328125 22.722656 18.246094 22.617188 18.140625 C 22.507812 18.03125 22.429688 17.910156 22.371094 17.769531 C 22.3125 17.628906 22.285156 17.484375 22.285156 17.335938 C 22.285156 17.183594 22.3125 17.039062 22.371094 16.898438 C 22.429688 16.761719 22.507812 16.636719 22.617188 16.53125 C 22.722656 16.421875 22.84375 16.339844 22.984375 16.28125 C 23.121094 16.222656 23.265625 16.195312 23.417969 16.191406 Z M 34.78125 16.191406 " fill-opacity="1" fill-rule="nonzero"/></g><g fill="#ffffff" fill-opacity="1"><g transform="translate(44.661297, 22.082549)"><g><path d="M 10.078125 -10.859375 L 10.078125 0 L 7.90625 0 L 7.90625 -4.625 L 3.25 -4.625 L 3.25 0 L 1.078125 0 L 1.078125 -10.859375 L 3.25 -10.859375 L 3.25 -6.390625 L 7.90625 -6.390625 L 7.90625 -10.859375 Z M 10.078125 -10.859375 "/></g></g></g><g fill="#ffffff" fill-opacity="1"><g transform="translate(55.820564, 22.082549)"><g><path d="M 2.171875 -9.65625 C 1.796875 -9.65625 1.476562 -9.773438 1.21875 -10.015625 C 0.96875 -10.253906 0.84375 -10.554688 0.84375 -10.921875 C 0.84375 -11.285156 0.96875 -11.585938 1.21875 -11.828125 C 1.476562 -12.078125 1.796875 -12.203125 2.171875 -12.203125 C 2.554688 -12.203125 2.875 -12.078125 3.125 -11.828125 C 3.382812 -11.585938 3.515625 -11.285156 3.515625 -10.921875 C 3.515625 -10.554688 3.382812 -10.253906 3.125 -10.015625 C 2.875 -9.773438 2.554688 -9.65625 2.171875 -9.65625 Z M 3.25 -8.625 L 3.25 0 L 1.078125 0 L 1.078125 -8.625 Z M 3.25 -8.625 "/></g></g></g><g fill="#ffffff" fill-opacity="1"><g transform="translate(60.14731, 22.082549)"><g><path d="M 0.515625 -4.34375 C 0.515625 -5.21875 0.6875 -5.988281 1.03125 -6.65625 C 1.382812 -7.332031 1.859375 -7.851562 2.453125 -8.21875 C 3.054688 -8.582031 3.726562 -8.765625 4.46875 -8.765625 C 5.03125 -8.765625 5.5625 -8.640625 6.0625 -8.390625 C 6.570312 -8.148438 6.976562 -7.828125 7.28125 -7.421875 L 7.28125 -11.515625 L 9.5 -11.515625 L 9.5 0 L 7.28125 0 L 7.28125 -1.28125 C 7.007812 -0.851562 6.628906 -0.507812 6.140625 -0.25 C 5.660156 0.0078125 5.097656 0.140625 4.453125 0.140625 C 3.722656 0.140625 3.054688 -0.046875 2.453125 -0.421875 C 1.859375 -0.796875 1.382812 -1.320312 1.03125 -2 C 0.6875 -2.675781 0.515625 -3.457031 0.515625 -4.34375 Z M 7.296875 -4.3125 C 7.296875 -4.84375 7.191406 -5.296875 6.984375 -5.671875 C 6.773438 -6.046875 6.492188 -6.332031 6.140625 -6.53125 C 5.796875 -6.738281 5.421875 -6.84375 5.015625 -6.84375 C 4.609375 -6.84375 4.234375 -6.742188 3.890625 -6.546875 C 3.546875 -6.347656 3.265625 -6.0625 3.046875 -5.6875 C 2.835938 -5.3125 2.734375 -4.863281 2.734375 -4.34375 C 2.734375 -3.820312 2.835938 -3.363281 3.046875 -2.96875 C 3.265625 -2.582031 3.546875 -2.285156 3.890625 -2.078125 C 4.242188 -1.878906 4.617188 -1.78125 5.015625 -1.78125 C 5.421875 -1.78125 5.796875 -1.878906 6.140625 -2.078125 C 6.492188 -2.273438 6.773438 -2.5625 6.984375 -2.9375 C 7.191406 -3.320312 7.296875 -3.78125 7.296875 -4.3125 Z M 7.296875 -4.3125 "/></g></g></g><g fill="#ffffff" fill-opacity="1"><g transform="translate(70.699585, 22.082549)"><g><path d="M 0.515625 -4.34375 C 0.515625 -5.21875 0.6875 -5.988281 1.03125 -6.65625 C 1.382812 -7.332031 1.859375 -7.851562 2.453125 -8.21875 C 3.054688 -8.582031 3.726562 -8.765625 4.46875 -8.765625 C 5.03125 -8.765625 5.5625 -8.640625 6.0625 -8.390625 C 6.570312 -8.148438 6.976562 -7.828125 7.28125 -7.421875 L 7.28125 -11.515625 L 9.5 -11.515625 L 9.5 0 L 7.28125 0 L 7.28125 -1.28125 C 7.007812 -0.851562 6.628906 -0.507812 6.140625 -0.25 C 5.660156 0.0078125 5.097656 0.140625 4.453125 0.140625 C 3.722656 0.140625 3.054688 -0.046875 2.453125 -0.421875 C 1.859375 -0.796875 1.382812 -1.320312 1.03125 -2 C 0.6875 -2.675781 0.515625 -3.457031 0.515625 -4.34375 Z M 7.296875 -4.3125 C 7.296875 -4.84375 7.191406 -5.296875 6.984375 -5.671875 C 6.773438 -6.046875 6.492188 -6.332031 6.140625 -6.53125 C 5.796875 -6.738281 5.421875 -6.84375 5.015625 -6.84375 C 4.609375 -6.84375 4.234375 -6.742188 3.890625 -6.546875 C 3.546875 -6.347656 3.265625 -6.0625 3.046875 -5.6875 C 2.835938 -5.3125 2.734375 -4.863281 2.734375 -4.34375 C 2.734375 -3.820312 2.835938 -3.363281 3.046875 -2.96875 C 3.265625 -2.582031 3.546875 -2.285156 3.890625 -2.078125 C 4.242188 -1.878906 4.617188 -1.78125 5.015625 -1.78125 C 5.421875 -1.78125 5.796875 -1.878906 6.140625 -2.078125 C 6.492188 -2.273438 6.773438 -2.5625 6.984375 -2.9375 C 7.191406 -3.320312 7.296875 -3.78125 7.296875 -4.3125 Z M 7.296875 -4.3125 "/></g></g></g><g fill="#ffffff" fill-opacity="1"><g transform="translate(81.25186, 22.082549)"><g><path d="M 9.09375 -4.5 C 9.09375 -4.1875 9.070312 -3.90625 9.03125 -3.65625 L 2.71875 -3.65625 C 2.769531 -3.03125 2.988281 -2.539062 3.375 -2.1875 C 3.757812 -1.84375 4.234375 -1.671875 4.796875 -1.671875 C 5.597656 -1.671875 6.171875 -2.015625 6.515625 -2.703125 L 8.875 -2.703125 C 8.625 -1.878906 8.144531 -1.195312 7.4375 -0.65625 C 6.726562 -0.125 5.863281 0.140625 4.84375 0.140625 C 4.007812 0.140625 3.265625 -0.0390625 2.609375 -0.40625 C 1.953125 -0.78125 1.4375 -1.300781 1.0625 -1.96875 C 0.695312 -2.644531 0.515625 -3.425781 0.515625 -4.3125 C 0.515625 -5.207031 0.695312 -5.988281 1.0625 -6.65625 C 1.425781 -7.332031 1.929688 -7.851562 2.578125 -8.21875 C 3.234375 -8.582031 3.988281 -8.765625 4.84375 -8.765625 C 5.65625 -8.765625 6.382812 -8.585938 7.03125 -8.234375 C 7.6875 -7.878906 8.191406 -7.378906 8.546875 -6.734375 C 8.910156 -6.085938 9.09375 -5.34375 9.09375 -4.5 Z M 6.828125 -5.125 C 6.816406 -5.675781 6.613281 -6.117188 6.21875 -6.453125 C 5.832031 -6.796875 5.351562 -6.96875 4.78125 -6.96875 C 4.238281 -6.96875 3.78125 -6.800781 3.40625 -6.46875 C 3.039062 -6.144531 2.816406 -5.695312 2.734375 -5.125 Z M 6.828125 -5.125 "/></g></g></g><g fill="#ffffff" fill-opacity="1"><g transform="translate(90.854739, 22.082549)"><g><path d="M 5.84375 -8.75 C 6.875 -8.75 7.707031 -8.421875 8.34375 -7.765625 C 8.976562 -7.117188 9.296875 -6.21875 9.296875 -5.0625 L 9.296875 0 L 7.109375 0 L 7.109375 -4.765625 C 7.109375 -5.453125 6.9375 -5.976562 6.59375 -6.34375 C 6.25 -6.707031 5.785156 -6.890625 5.203125 -6.890625 C 4.597656 -6.890625 4.117188 -6.707031 3.765625 -6.34375 C 3.421875 -5.976562 3.25 -5.453125 3.25 -4.765625 L 3.25 0 L 1.078125 0 L 1.078125 -8.625 L 3.25 -8.625 L 3.25 -7.546875 C 3.539062 -7.921875 3.910156 -8.210938 4.359375 -8.421875 C 4.816406 -8.640625 5.3125 -8.75 5.84375 -8.75 Z M 5.84375 -8.75 "/></g></g></g><g fill="#ffffff" fill-opacity="1"><g transform="translate(101.142429, 22.082549)"><g/></g></g><g fill="#ffffff" fill-opacity="1"><g transform="translate(104.846618, 22.082549)"><g><path d="M 8.46875 -10.859375 L 8.46875 -9.109375 L 5.578125 -9.109375 L 5.578125 0 L 3.390625 0 L 3.390625 -9.109375 L 0.5 -9.109375 L 0.5 -10.859375 Z M 8.46875 -10.859375 "/></g></g></g><g fill="#ffffff" fill-opacity="1"><g transform="translate(113.82695, 22.082549)"><g><path d="M 9.21875 -8.625 L 9.21875 0 L 7.015625 0 L 7.015625 -1.09375 C 6.734375 -0.71875 6.367188 -0.421875 5.921875 -0.203125 C 5.472656 0.00390625 4.984375 0.109375 4.453125 0.109375 C 3.773438 0.109375 3.175781 -0.03125 2.65625 -0.3125 C 2.144531 -0.601562 1.738281 -1.023438 1.4375 -1.578125 C 1.144531 -2.128906 1 -2.789062 1 -3.5625 L 1 -8.625 L 3.171875 -8.625 L 3.171875 -3.875 C 3.171875 -3.1875 3.34375 -2.660156 3.6875 -2.296875 C 4.03125 -1.929688 4.5 -1.75 5.09375 -1.75 C 5.6875 -1.75 6.15625 -1.929688 6.5 -2.296875 C 6.84375 -2.660156 7.015625 -3.1875 7.015625 -3.875 L 7.015625 -8.625 Z M 9.21875 -8.625 "/></g></g></g><g fill="#ffffff" fill-opacity="1"><g transform="translate(124.11464, 22.082549)"><g><path d="M 5.84375 -8.75 C 6.875 -8.75 7.707031 -8.421875 8.34375 -7.765625 C 8.976562 -7.117188 9.296875 -6.21875 9.296875 -5.0625 L 9.296875 0 L 7.109375 0 L 7.109375 -4.765625 C 7.109375 -5.453125 6.9375 -5.976562 6.59375 -6.34375 C 6.25 -6.707031 5.785156 -6.890625 5.203125 -6.890625 C 4.597656 -6.890625 4.117188 -6.707031 3.765625 -6.34375 C 3.421875 -5.976562 3.25 -5.453125 3.25 -4.765625 L 3.25 0 L 1.078125 0 L 1.078125 -8.625 L 3.25 -8.625 L 3.25 -7.546875 C 3.539062 -7.921875 3.910156 -8.210938 4.359375 -8.421875 C 4.816406 -8.640625 5.3125 -8.75 5.84375 -8.75 Z M 5.84375 -8.75 "/></g></g></g><g fill="#ffffff" fill-opacity="1"><g transform="translate(134.402331, 22.082549)"><g><path d="M 9.09375 -4.5 C 9.09375 -4.1875 9.070312 -3.90625 9.03125 -3.65625 L 2.71875 -3.65625 C 2.769531 -3.03125 2.988281 -2.539062 3.375 -2.1875 C 3.757812 -1.84375 4.234375 -1.671875 4.796875 -1.671875 C 5.597656 -1.671875 6.171875 -2.015625 6.515625 -2.703125 L 8.875 -2.703125 C 8.625 -1.878906 8.144531 -1.195312 7.4375 -0.65625 C 6.726562 -0.125 5.863281 0.140625 4.84375 0.140625 C 4.007812 0.140625 3.265625 -0.0390625 2.609375 -0.40625 C 1.953125 -0.78125 1.4375 -1.300781 1.0625 -1.96875 C 0.695312 -2.644531 0.515625 -3.425781 0.515625 -4.3125 C 0.515625 -5.207031 0.695312 -5.988281 1.0625 -6.65625 C 1.425781 -7.332031 1.929688 -7.851562 2.578125 -8.21875 C 3.234375 -8.582031 3.988281 -8.765625 4.84375 -8.765625 C 5.65625 -8.765625 6.382812 -8.585938 7.03125 -8.234375 C 7.6875 -7.878906 8.191406 -7.378906 8.546875 -6.734375 C 8.910156 -6.085938 9.09375 -5.34375 9.09375 -4.5 Z M 6.828125 -5.125 C 6.816406 -5.675781 6.613281 -6.117188 6.21875 -6.453125 C 5.832031 -6.796875 5.351562 -6.96875 4.78125 -6.96875 C 4.238281 -6.96875 3.78125 -6.800781 3.40625 -6.46875 C 3.039062 -6.144531 2.816406 -5.695312 2.734375 -5.125 Z M 6.828125 -5.125 "/></g></g></g><g fill="#ffffff" fill-opacity="1"><g transform="translate(144.005209, 22.082549)"><g><path d="M 4.375 0.140625 C 3.664062 0.140625 3.03125 0.015625 2.46875 -0.234375 C 1.914062 -0.492188 1.472656 -0.84375 1.140625 -1.28125 C 0.816406 -1.71875 0.640625 -2.195312 0.609375 -2.71875 L 2.796875 -2.71875 C 2.835938 -2.382812 3 -2.109375 3.28125 -1.890625 C 3.570312 -1.679688 3.929688 -1.578125 4.359375 -1.578125 C 4.773438 -1.578125 5.097656 -1.65625 5.328125 -1.8125 C 5.566406 -1.976562 5.6875 -2.191406 5.6875 -2.453125 C 5.6875 -2.734375 5.539062 -2.941406 5.25 -3.078125 C 4.96875 -3.222656 4.515625 -3.378906 3.890625 -3.546875 C 3.242188 -3.703125 2.71875 -3.863281 2.3125 -4.03125 C 1.90625 -4.195312 1.550781 -4.453125 1.25 -4.796875 C 0.957031 -5.140625 0.8125 -5.597656 0.8125 -6.171875 C 0.8125 -6.648438 0.945312 -7.085938 1.21875 -7.484375 C 1.5 -7.878906 1.894531 -8.191406 2.40625 -8.421875 C 2.914062 -8.648438 3.519531 -8.765625 4.21875 -8.765625 C 5.25 -8.765625 6.066406 -8.503906 6.671875 -7.984375 C 7.285156 -7.472656 7.625 -6.78125 7.6875 -5.90625 L 5.609375 -5.90625 C 5.578125 -6.25 5.429688 -6.519531 5.171875 -6.71875 C 4.921875 -6.925781 4.582031 -7.03125 4.15625 -7.03125 C 3.757812 -7.03125 3.453125 -6.957031 3.234375 -6.8125 C 3.023438 -6.664062 2.921875 -6.460938 2.921875 -6.203125 C 2.921875 -5.921875 3.066406 -5.703125 3.359375 -5.546875 C 3.648438 -5.398438 4.101562 -5.25 4.71875 -5.09375 C 5.34375 -4.9375 5.851562 -4.773438 6.25 -4.609375 C 6.65625 -4.441406 7.003906 -4.179688 7.296875 -3.828125 C 7.597656 -3.484375 7.753906 -3.023438 7.765625 -2.453125 C 7.765625 -1.960938 7.625 -1.519531 7.34375 -1.125 C 7.070312 -0.726562 6.679688 -0.414062 6.171875 -0.1875 C 5.660156 0.03125 5.0625 0.140625 4.375 0.140625 Z M 4.375 0.140625 "/></g></g></g></svg>